<svg class="railroad-diagram" width="794.5" height="131" viewBox="0 0 794.5 131" xmlns="http://www.w3.org/2000/svg" xmlns:xlink="http://www.w3.org/1999/xlink">
<g transform="translate(.5 .5)">
<g>
<path d="M20 30v20m10 -20v20m-10 -10h20"></path>
</g>
<g>
<path d="M40 40h0"></path>
<path d="M182.5 40h0"></path>
<path d="M40 40a10 10 0 0 0 10 -10v0a10 10 0 0 1 10 -10"></path>
<g>
<path d="M60 20h102.5"></path>
</g>
<path d="M162.5 20a10 10 0 0 1 10 10v0a10 10 0 0 0 10 10"></path>
<path d="M40 40h20"></path>
<g>
<path d="M60 40h0"></path>
<path d="M162.5 40h0"></path>
<path d="M60 40h20"></path>
<g class="terminal ">
<path d="M80 40h0"></path>
<path d="M142.5 40h0"></path>
<rect x="80" y="29" width="62.5" height="22" rx="10" ry="10"></rect>
<text x="111.25" y="44">const</text>
</g>
<path d="M142.5 40h20"></path>
<path d="M60 40a10 10 0 0 1 10 10v10a10 10 0 0 0 10 10"></path>
<g class="terminal ">
<path d="M80 70h8.5"></path>
<path d="M134 70h8.5"></path>
<rect x="88.5" y="59" width="45.5" height="22" rx="10" ry="10"></rect>
<text x="111.25" y="74">let</text>
</g>
<path d="M142.5 70a10 10 0 0 0 10 -10v-10a10 10 0 0 1 10 -10"></path>
<path d="M60 40a10 10 0 0 1 10 10v40a10 10 0 0 0 10 10"></path>
<g class="terminal ">
<path d="M80 100h8.5"></path>
<path d="M134 100h8.5"></path>
<rect x="88.5" y="89" width="45.5" height="22" rx="10" ry="10"></rect>
<text x="111.25" y="104">var</text>
</g>
<path d="M142.5 100a10 10 0 0 0 10 -10v-40a10 10 0 0 1 10 -10"></path>
</g>
<path d="M162.5 40h20"></path>
</g>
<path d="M182.5 40h10"></path>
<g class="non-terminal ">
<path d="M192.5 40h0"></path>
<path d="M297.5 40h0"></path>
<rect x="192.5" y="29" width="105" height="22"></rect>
<text x="245" y="44">identifier</text>
</g>
<path d="M297.5 40h10"></path>
<g>
<path d="M307.5 40h0"></path>
<path d="M535 40h0"></path>
<path d="M307.5 40a10 10 0 0 0 10 -10v0a10 10 0 0 1 10 -10"></path>
<g>
<path d="M327.5 20h187.5"></path>
</g>
<path d="M515 20a10 10 0 0 1 10 10v0a10 10 0 0 0 10 10"></path>
<path d="M307.5 40h20"></path>
<g>
<path d="M327.5 40h0"></path>
<path d="M515 40h0"></path>
<g class="terminal ">
<path d="M327.5 40h0"></path>
<path d="M356 40h0"></path>
<rect x="327.5" y="29" width="28.5" height="22" rx="10" ry="10"></rect>
<text x="341.75" y="44">:</text>
</g>
<path d="M356 40h10"></path>
<path d="M366 40h10"></path>
<g class="non-terminal ">
<path d="M376 40h0"></path>
<path d="M515 40h0"></path>
<rect x="376" y="29" width="139" height="22"></rect>
<text x="445.5" y="44">type reference</text>
</g>
</g>
<path d="M515 40h20"></path>
</g>
<g>
<path d="M535 40h0"></path>
<path d="M686 40h0"></path>
<path d="M535 40a10 10 0 0 0 10 -10v0a10 10 0 0 1 10 -10"></path>
<g>
<path d="M555 20h111"></path>
</g>
<path d="M666 20a10 10 0 0 1 10 10v0a10 10 0 0 0 10 10"></path>
<path d="M535 40h20"></path>
<g>
<path d="M555 40h0"></path>
<path d="M666 40h0"></path>
<g class="terminal ">
<path d="M555 40h0"></path>
<path d="M583.5 40h0"></path>
<rect x="555" y="29" width="28.5" height="22" rx="10" ry="10"></rect>
<text x="569.25" y="44">=</text>
</g>
<path d="M583.5 40h10"></path>
<path d="M593.5 40h10"></path>
<g class="non-terminal ">
<path d="M603.5 40h0"></path>
<path d="M666 40h0"></path>
<rect x="603.5" y="29" width="62.5" height="22"></rect>
<text x="634.75" y="44">value</text>
</g>
</g>
<path d="M666 40h20"></path>
</g>
<g>
<path d="M686 40h0"></path>
<path d="M754.5 40h0"></path>
<path d="M686 40a10 10 0 0 0 10 -10v0a10 10 0 0 1 10 -10"></path>
<g>
<path d="M706 20h28.5"></path>
</g>
<path d="M734.5 20a10 10 0 0 1 10 10v0a10 10 0 0 0 10 10"></path>
<path d="M686 40h20"></path>
<g class="terminal ">
<path d="M706 40h0"></path>
<path d="M734.5 40h0"></path>
<rect x="706" y="29" width="28.5" height="22" rx="10" ry="10"></rect>
<text x="720.25" y="44">;</text>
</g>
<path d="M734.5 40h20"></path>
</g>
<path d="M 754.5 40 h 20 m -10 -10 v 20 m 10 -20 v 20"></path>
</g>
<style>
	svg {
	}
	path {
		stroke-width: 3;
		stroke: white;
		fill: rgba(0,0,0,0);
	}
	text {
		font: bold 14px monospace;
		text-anchor: middle;
		white-space: pre;
        fill: white
	}
	text.diagram-text {
		font-size: 12px;
	}
	text.diagram-arrow {
		font-size: 16px;
	}
	text.label {
		text-anchor: start;
	}
	text.comment {
		font: italic 12px monospace;
	}
	g.non-terminal text {
		/&#42;font-style: italic;&#42;/
	}
	rect {
		stroke-width: 3;
		stroke: white;
		fill: rgba(0,0,0,0);
	}
	rect.group-box {
		stroke: gray;
		stroke-dasharray: 10 5;
		fill: none;
	}
	path.diagram-text {
		stroke-width: 3;
		stroke: white;
		fill: white;
		cursor: help;
	}
	g.diagram-text:hover path.diagram-text {
		fill: #fff;
	}</style>
</svg>
